<svg width="42" height="42" viewBox="0 0 42 42" fill="none" xmlns="http://www.w3.org/2000/svg">
<path d="M10.5 14.4375C10.5 11.4042 11.5646 8.82291 13.6938 6.69375C15.8229 4.56458 18.4042 3.5 21.4375 3.5C24.4708 3.5 27.0521 4.56458 29.1812 6.69375C31.3104 8.82291 32.375 11.4042 32.375 14.4375V30.625C32.375 32.8125 31.6094 34.6719 30.0781 36.2031C28.5469 37.7344 26.6875 38.5 24.5 38.5C22.3125 38.5 20.4531 37.7344 18.9219 36.2031C17.3906 34.6719 16.625 32.8125 16.625 30.625V15.3125C16.625 13.9708 17.0917 12.8333 18.025 11.9C18.9583 10.9667 20.0958 10.5 21.4375 10.5C22.7792 10.5 23.9167 10.9667 24.85 11.9C25.7833 12.8333 26.25 13.9708 26.25 15.3125V31.5H22.75V15.3125C22.75 14.9333 22.626 14.6198 22.3781 14.3719C22.1302 14.124 21.8167 14 21.4375 14C21.0583 14 20.7448 14.124 20.4969 14.3719C20.249 14.6198 20.125 14.9333 20.125 15.3125V30.625C20.1542 31.85 20.5844 32.8854 21.4156 33.7312C22.2469 34.5771 23.275 35 24.5 35C25.725 35 26.7604 34.5771 27.6062 33.7312C28.4521 32.8854 28.875 31.85 28.875 30.625V14.4375C28.9042 12.3667 28.1896 10.6094 26.7312 9.16562C25.2729 7.72187 23.5083 7 21.4375 7C19.3958 7 17.6604 7.72187 16.2312 9.16562C14.8021 10.6094 14.0583 12.3667 14 14.4375V31.5H10.5V14.4375Z" fill="#BBBCBF"/>
</svg>
