<svg width="60" height="60" viewBox="0 0 60 60" fill="none" xmlns="http://www.w3.org/2000/svg">
<g clip-path="url(#clip0_44_2289)">
<path d="M46.0639 33.3609L46.6162 38.9644C46.6593 39.4575 46.5309 39.8828 46.231 40.2403C45.931 40.5978 45.5345 40.7981 45.0414 40.8412C41.2941 41.314 37.6905 41.003 34.2306 39.9083C30.7706 38.8135 27.7224 37.16 25.0859 34.9478C22.4494 32.7355 20.2973 30.0254 18.6296 26.8175C16.9619 23.6096 16.0242 20.11 15.8168 16.3189C15.7736 15.8258 15.9021 15.4005 16.202 15.043C16.502 14.6855 16.8985 14.4852 17.3916 14.4421L23.0059 14.013C23.4579 13.9734 23.8553 14.0784 24.198 14.3279C24.5407 14.5774 24.7618 14.9152 24.8612 15.3413L26.2741 21.5527C26.3404 21.8367 26.3432 22.1056 26.2826 22.3593C26.222 22.6131 26.0979 22.8517 25.9104 23.0751L22.7045 26.8957C23.3286 27.8763 24.0219 28.8197 24.7843 29.726C25.5468 30.6323 26.3973 31.4792 27.3357 32.2666C28.2741 33.054 29.2557 33.7445 30.2807 34.338C31.3057 34.9315 32.3551 35.4505 33.4291 35.8948L36.635 32.0741C36.8225 31.8507 37.0359 31.6871 37.2753 31.5833C37.5147 31.4796 37.78 31.4357 38.0712 31.4516L44.4336 31.7645C44.8704 31.7884 45.2415 31.9474 45.5467 32.2416C45.8519 32.5358 46.0243 32.9089 46.0639 33.3609ZM37.0102 37.0721C37.9394 37.2806 38.8884 37.4201 39.8572 37.4906C40.8261 37.5611 41.8594 37.6001 42.9573 37.6076L42.7416 35.1421L38.7538 34.9942L37.0102 37.0721ZM20.9795 23.5065L22.6668 21.4956L21.8286 17.594L19.4194 17.7427C19.5799 18.8673 19.7837 19.895 20.0307 20.8257C20.2778 21.7564 20.594 22.65 20.9795 23.5065Z" fill="#E1E3E6"/>
</g>
<defs>
<clipPath id="clip0_44_2289">
<rect width="42" height="42" fill="white" transform="translate(32.1739 59.1709) rotate(-140)"/>
</clipPath>
</defs>
</svg>
