<svg width="42" height="42" viewBox="0 0 42 42" fill="none" xmlns="http://www.w3.org/2000/svg">
<path d="M27.125 19.25C27.8542 19.25 28.474 18.9948 28.9844 18.4844C29.4948 17.974 29.75 17.3542 29.75 16.625C29.75 15.8958 29.4948 15.276 28.9844 14.7656C28.474 14.2552 27.8542 14 27.125 14C26.3958 14 25.776 14.2552 25.2656 14.7656C24.7552 15.276 24.5 15.8958 24.5 16.625C24.5 17.3542 24.7552 17.974 25.2656 18.4844C25.776 18.9948 26.3958 19.25 27.125 19.25ZM14.875 19.25C15.6042 19.25 16.224 18.9948 16.7344 18.4844C17.2448 17.974 17.5 17.3542 17.5 16.625C17.5 15.8958 17.2448 15.276 16.7344 14.7656C16.224 14.2552 15.6042 14 14.875 14C14.1458 14 13.526 14.2552 13.0156 14.7656C12.5052 15.276 12.25 15.8958 12.25 16.625C12.25 17.3542 12.5052 17.974 13.0156 18.4844C13.526 18.9948 14.1458 19.25 14.875 19.25ZM21 30.625C22.9833 30.625 24.7844 30.0635 26.4031 28.9406C28.0219 27.8177 29.1958 26.3375 29.925 24.5H12.075C12.8042 26.3375 13.9781 27.8177 15.5969 28.9406C17.2156 30.0635 19.0167 30.625 21 30.625ZM21 38.5C18.5792 38.5 16.3042 38.0406 14.175 37.1219C12.0458 36.2031 10.1937 34.9563 8.61875 33.3813C7.04375 31.8063 5.79688 29.9542 4.87813 27.825C3.95937 25.6958 3.5 23.4208 3.5 21C3.5 18.5792 3.95937 16.3042 4.87813 14.175C5.79688 12.0458 7.04375 10.1937 8.61875 8.61875C10.1937 7.04375 12.0458 5.79688 14.175 4.87813C16.3042 3.95937 18.5792 3.5 21 3.5C23.4208 3.5 25.6958 3.95937 27.825 4.87813C29.9542 5.79688 31.8063 7.04375 33.3813 8.61875C34.9563 10.1937 36.2031 12.0458 37.1219 14.175C38.0406 16.3042 38.5 18.5792 38.5 21C38.5 23.4208 38.0406 25.6958 37.1219 27.825C36.2031 29.9542 34.9563 31.8063 33.3813 33.3813C31.8063 34.9563 29.9542 36.2031 27.825 37.1219C25.6958 38.0406 23.4208 38.5 21 38.5ZM21 35C24.9083 35 28.2188 33.6438 30.9312 30.9312C33.6438 28.2188 35 24.9083 35 21C35 17.0917 33.6438 13.7813 30.9312 11.0688C28.2188 8.35625 24.9083 7 21 7C17.0917 7 13.7813 8.35625 11.0688 11.0688C8.35625 13.7813 7 17.0917 7 21C7 24.9083 8.35625 28.2188 11.0688 30.9312C13.7813 33.6438 17.0917 35 21 35Z" fill="#BBBCBF"/>
</svg>
