<svg width="42" height="42" viewBox="0 0 42 42" fill="none" xmlns="http://www.w3.org/2000/svg">
<path d="M21 35C20.0375 35 19.2135 34.6573 18.5281 33.9719C17.8427 33.2865 17.5 32.4625 17.5 31.5C17.5 30.5375 17.8427 29.7135 18.5281 29.0281C19.2135 28.3427 20.0375 28 21 28C21.9625 28 22.7865 28.3427 23.4719 29.0281C24.1573 29.7135 24.5 30.5375 24.5 31.5C24.5 32.4625 24.1573 33.2865 23.4719 33.9719C22.7865 34.6573 21.9625 35 21 35ZM21 24.5C20.0375 24.5 19.2135 24.1573 18.5281 23.4719C17.8427 22.7865 17.5 21.9625 17.5 21C17.5 20.0375 17.8427 19.2135 18.5281 18.5281C19.2135 17.8427 20.0375 17.5 21 17.5C21.9625 17.5 22.7865 17.8427 23.4719 18.5281C24.1573 19.2135 24.5 20.0375 24.5 21C24.5 21.9625 24.1573 22.7865 23.4719 23.4719C22.7865 24.1573 21.9625 24.5 21 24.5ZM21 14C20.0375 14 19.2135 13.6573 18.5281 12.9719C17.8427 12.2865 17.5 11.4625 17.5 10.5C17.5 9.5375 17.8427 8.71354 18.5281 8.02813C19.2135 7.34271 20.0375 7 21 7C21.9625 7 22.7865 7.34271 23.4719 8.02813C24.1573 8.71354 24.5 9.5375 24.5 10.5C24.5 11.4625 24.1573 12.2865 23.4719 12.9719C22.7865 13.6573 21.9625 14 21 14Z" fill="#E1E3E6"/>
</svg>
